<svg width="318" height="66" viewBox="0 0 318 66" fill="none" xmlns="http://www.w3.org/2000/svg">
<path d="M60 18.0884C60 14.164 56.864 10.979 53 10.979C51.43 10.979 49.996 11.5234 48.828 12.409L47.72 11.2837C47.32 10.8774 46.7 10.8774 46.3 11.2837C45.9 11.6899 45.9 12.3196 46.3 12.7259L47.408 13.8512C46.4977 15.0706 46.0034 16.5581 46 18.0884V23.8165C46 24.5843 45.396 25.1977 44.64 25.1977H44V15.0415C44.0026 12.6338 43.2994 10.2798 41.98 8.27945C42.091 8.22935 42.1925 8.15992 42.28 8.0743L43.7 6.63211C44.1 6.22586 44.1 5.59617 43.7 5.18992C43.3 4.78367 42.68 4.78367 42.28 5.18992L40.86 6.63211C40.824 6.66867 40.808 6.71539 40.78 6.75398C39.6609 5.52525 38.3038 4.54468 36.7939 3.87381C35.284 3.20294 33.6538 2.85625 32.0057 2.85549C30.3577 2.85472 28.7272 3.19991 27.2167 3.86938C25.7062 4.53885 24.3482 5.51816 23.228 6.74586C23.196 6.70117 23.18 6.65039 23.14 6.61179L21.72 5.18992C21.32 4.78367 20.7 4.78367 20.3 5.18992C19.9 5.59617 19.9 6.22586 20.3 6.63211L21.72 8.0743C21.8075 8.15992 21.909 8.22935 22.02 8.27945C20.7006 10.2798 19.9974 12.6338 20 15.0415V19.104H19C18.44 19.104 18 19.5509 18 20.1196C18 20.6884 18.44 21.1352 19 21.1352H20V39.4165H19.36C19.1812 39.4173 19.004 39.3821 18.8386 39.313C18.6733 39.2439 18.523 39.1421 18.3966 39.0137C18.2701 38.8853 18.17 38.7327 18.1019 38.5648C18.0338 38.3968 17.9992 38.2168 18 38.0352V31.9212L19.42 30.479C19.82 30.0727 19.82 29.443 19.42 29.0368C19.02 28.6305 18.4 28.6305 18 29.0368V24.2837C18 20.3593 14.834 16.9854 10.858 17.0727C9.40069 17.109 7.98925 17.6084 6.826 18.5007L5.72 17.3774C5.32 16.9712 4.7 16.9712 4.3 17.3774C3.9 17.7837 3.9 18.4134 4.3 18.8196L5.404 19.9571C4.49749 21.1737 4.00476 22.6565 4 24.1821V38.0352C4 41.986 5.458 45.5834 7.842 48.3316C7.802 48.3621 7.758 48.3784 7.72 48.4149L6.3 49.8571C5.9 50.2634 5.9 50.893 6.3 51.2993C6.7 51.7055 7.32 51.7055 7.72 51.2993L9.14 49.8571C9.176 49.8205 9.192 49.7738 9.222 49.7332C12.0183 52.2484 15.6247 53.6364 19.36 53.6352H20V59.8509C20 60.896 20.4088 61.8983 21.1364 62.6373C21.8641 63.3763 22.851 63.7915 23.88 63.7915H40.12C41.149 63.7915 42.1359 63.3763 42.8636 62.6373C43.5912 61.8983 44 60.896 44 59.8509V51.604H45.75C46.31 51.604 46.75 51.1571 46.75 50.5884C46.75 50.0196 46.31 49.5727 45.75 49.5727H44V39.4165H44.64C48.4022 39.4147 52.0314 38.0029 54.832 35.4515C54.844 35.4657 54.848 35.482 54.86 35.4941L56.28 36.9363C56.68 37.3426 57.3 37.3426 57.7 36.9363C58.1 36.5301 58.1 35.9004 57.7 35.4941L56.28 34.052C56.264 34.0357 56.244 34.0316 56.23 34.0174C58.6593 31.1916 59.9986 27.5678 60 23.8165V18.0884ZM40 29.2602H44.64C45.344 29.2608 46.0413 29.1203 46.6918 28.8469C47.3424 28.5736 47.9334 28.1726 48.4313 27.667C48.9291 27.1614 49.3239 26.5611 49.5931 25.9003C49.8622 25.2396 50.0005 24.5315 50 23.8165V18.0884C50 16.764 50.838 15.6488 52 15.2284V23.8165C52 27.9399 48.7 31.2915 44.64 31.2915H38V25.1977H39C39.56 25.1977 40 24.7509 40 24.1821C40 23.6134 39.56 23.1665 39 23.1665H38V9.72164C39.23 11.1496 40 12.998 40 15.0415V29.2602ZM36 8.04383V59.729H28V8.04383C29.2109 7.31335 30.5917 6.92419 32 6.91648C33.464 6.91648 34.82 7.34508 36 8.04383ZM8 38.0352V24.1821C8 22.5287 9.306 21.1718 10.944 21.1352C12.566 21.1007 14 22.5226 14 24.2837V38.0352C13.9995 38.7503 14.1378 39.4584 14.4069 40.1191C14.6761 40.7798 15.0709 41.3801 15.5687 41.8857C16.0666 42.3913 16.6577 42.7923 17.3082 43.0657C17.9587 43.3391 18.656 43.4795 19.36 43.479H24V15.0415C24 12.996 24.77 11.1496 26 9.72164V32.3924L25.8 32.1852C25.4 31.779 24.78 31.779 24.38 32.1852C23.98 32.5915 23.98 33.2212 24.38 33.6274L26 35.3093V45.5102H19.36C15.3 45.5102 12 42.1587 12 38.0352V24.2837C12 23.6946 11.54 23.1665 11 23.1665H10.98C10.44 23.1868 10 23.6337 10 24.1821V38.0352C10 43.2759 14.2 47.5415 19.36 47.5415H26V59.729H24V49.5727H19.36C17.8681 49.573 16.3908 49.2748 15.0124 48.695C13.634 48.1153 12.3816 47.2655 11.3267 46.1941C10.2718 45.1227 9.43499 43.8507 8.86419 42.4508C8.29339 41.0508 7.99974 39.5504 8 38.0352ZM44.64 35.354H40V59.729H38V43.7187L39.66 41.9962C40.06 41.6102 40.06 40.9602 39.66 40.554C39.26 40.1477 38.64 40.1477 38.24 40.554L38 40.8018V33.3227H44.64C49.8 33.3227 54 29.0571 54 23.8165V15.2284C55.162 15.6488 56 16.764 56 18.0884V23.8165C55.9937 26.8744 54.7948 29.8053 52.6657 31.9676C50.5367 34.1299 47.6509 35.3475 44.64 35.354Z" fill="#EBEBEB"/>
<path d="M82.3324 56.214C80.4325 56.214 78.8317 55.87 77.5302 55.1818C76.2286 54.4936 75.2188 53.4539 74.5007 52.0626C73.7976 50.6713 73.3338 48.9134 73.1094 46.789C73.0496 46.2804 73.0047 45.7568 72.9748 45.2182C72.9448 44.6647 72.9149 44.0962 72.885 43.5127C72.87 42.9143 72.8626 42.301 72.8626 41.6726C72.8626 41.0443 72.8626 40.401 72.8626 39.7427C72.8626 37.1845 73.1094 35.0751 73.6031 33.4145C74.0968 31.739 74.8672 30.4299 75.9145 29.4874C76.9766 28.5449 78.3306 27.8792 79.9762 27.4902C81.6368 27.1013 83.6115 26.9068 85.9005 26.9068C87.0225 26.9068 88.0922 26.9591 89.1095 27.0639C90.1417 27.1536 91.0543 27.2958 91.8472 27.4902C92.6401 27.6847 93.261 27.9316 93.7098 28.2308C94.1735 28.515 94.4054 28.8591 94.4054 29.263C94.4054 29.6819 94.2783 30.0185 94.0239 30.2729C93.7846 30.5122 93.4704 30.6693 93.0814 30.7441C92.6177 30.8039 92.0043 30.8189 91.2413 30.789C90.4783 30.7441 89.6406 30.6992 88.728 30.6543C87.8154 30.6095 86.8879 30.587 85.9454 30.587C84.5989 30.587 83.4694 30.6917 82.5568 30.9012C81.6443 31.0957 80.9112 31.4248 80.3577 31.8886C79.8041 32.3523 79.4077 32.9807 79.1683 33.7736C78.929 34.5665 78.8093 35.5464 78.8093 36.7133C78.8093 37.3117 78.8841 37.768 79.0337 38.0821C79.1983 38.3813 79.5723 38.5833 80.1557 38.688C80.7392 38.7778 81.6742 38.8227 82.9608 38.8227C83.2749 38.8227 83.6639 38.8227 84.1277 38.8227C84.5914 38.8077 85.0702 38.7928 85.5639 38.7778C86.0725 38.7628 86.5438 38.7554 86.9776 38.7554C87.4264 38.7554 87.778 38.7554 88.0323 38.7554C89.1543 38.7554 89.9323 38.8975 90.3661 39.1817C90.8 39.466 91.0169 39.8849 91.0169 40.4384C91.0169 41.2313 90.7551 41.7773 90.2315 42.0765C89.7228 42.3608 89.0421 42.5029 88.1894 42.5029C87.8154 42.5029 87.404 42.5029 86.9552 42.5029C86.5064 42.5029 86.0351 42.5104 85.5414 42.5254C85.0627 42.5254 84.5989 42.5254 84.1501 42.5254C83.7013 42.5254 83.2974 42.5254 82.9383 42.5254C81.6069 42.5254 80.6195 42.5702 79.9762 42.66C79.3329 42.7348 78.914 42.9143 78.7195 43.1986C78.54 43.4679 78.4502 43.9017 78.4502 44.5001C78.4502 45.4875 78.4951 46.3776 78.5849 47.1705C78.6746 47.9485 78.8317 48.6292 79.0561 49.2126C79.2805 49.7811 79.5947 50.2524 79.9986 50.6264C80.4175 51.0004 80.9486 51.2846 81.5919 51.4791C82.2352 51.6586 83.0131 51.7484 83.9257 51.7484C85.0627 51.7484 86.1772 51.711 87.2693 51.6362C88.3614 51.5614 89.3488 51.4941 90.2315 51.4342C91.1141 51.3594 91.8023 51.322 92.296 51.322C92.9692 51.322 93.4629 51.4641 93.7771 51.7484C94.0913 52.0177 94.2483 52.4216 94.2483 52.9602C94.2483 53.5586 93.8743 54.0672 93.1263 54.4861C92.3933 54.905 91.4283 55.2416 90.2315 55.496C89.0496 55.7503 87.763 55.9298 86.3717 56.0345C84.9804 56.1542 83.634 56.214 82.3324 56.214ZM100.077 55.3164C99.3734 55.3164 98.8199 55.1294 98.4159 54.7554C98.012 54.3814 97.7203 53.7755 97.5408 52.9377C97.4809 52.5488 97.4435 52.1074 97.4286 51.6138C97.4136 51.1201 97.4136 50.559 97.4286 49.9307C97.4435 49.3024 97.4809 48.6142 97.5408 47.8662C97.7203 44.8891 98.3262 42.3683 99.3584 40.3038C100.391 38.2243 101.827 36.646 103.667 35.5688C105.507 34.4767 107.699 33.9307 110.242 33.9307C112.8 33.9307 114.992 34.4468 116.817 35.479C118.642 36.5113 120.041 38.0971 121.014 40.2364C121.986 42.3758 122.472 45.106 122.472 48.4272C122.472 49.0256 122.457 49.5791 122.427 50.0878C122.412 50.5964 122.382 51.0602 122.337 51.4791C122.293 51.898 122.225 52.2795 122.136 52.6236C121.911 53.581 121.575 54.2692 121.126 54.6881C120.692 55.107 120.123 55.3164 119.42 55.3164C118.702 55.3164 118.156 55.1967 117.782 54.9574C117.408 54.718 117.139 54.359 116.974 53.8802C116.81 53.4015 116.697 52.8106 116.638 52.1074C116.593 50.9854 116.548 49.998 116.503 49.1453C116.473 48.2776 116.421 47.5071 116.346 46.8339C116.286 46.1458 116.211 45.5099 116.121 44.9265C116.032 44.3281 115.92 43.7297 115.785 43.1313C115.441 41.6053 114.865 40.4459 114.057 39.653C113.249 38.8601 112.045 38.4636 110.444 38.4636C108.903 38.4636 107.661 38.89 106.719 39.7427C105.791 40.5955 105.073 41.7699 104.565 43.2659C104.34 43.8942 104.153 44.5525 104.004 45.2407C103.854 45.9288 103.727 46.6394 103.622 47.3725C103.532 48.1056 103.45 48.876 103.375 49.6839C103.315 50.4917 103.256 51.337 103.196 52.2196C103.121 53.0574 102.941 53.7007 102.657 54.1495C102.373 54.5983 102.014 54.905 101.58 55.0696C101.146 55.2341 100.645 55.3164 100.077 55.3164ZM138.399 56.1692C136.618 56.1692 134.95 55.9223 133.394 55.4286C131.853 54.9499 130.492 54.2318 129.31 53.2743C128.143 52.3169 127.223 51.135 126.55 49.7288C125.892 48.3075 125.563 46.6544 125.563 44.7694C125.563 42.7946 125.877 41.0293 126.505 39.4735C127.133 37.9026 128.024 36.5712 129.176 35.479C130.342 34.372 131.741 33.5342 133.372 32.9657C135.018 32.3823 136.835 32.0905 138.825 32.0905C140.366 32.0905 141.682 32.2401 142.774 32.5393C143.867 32.8386 144.704 33.22 145.288 33.6838C145.871 34.1476 146.163 34.6188 146.163 35.0976C146.163 35.3968 146.081 35.6735 145.916 35.9279C145.752 36.1822 145.535 36.3841 145.265 36.5337C144.996 36.6684 144.712 36.7357 144.413 36.7357C144.069 36.7357 143.695 36.6684 143.291 36.5337C142.902 36.3841 142.393 36.2345 141.765 36.0849C141.136 35.9353 140.306 35.8605 139.274 35.8605C138.077 35.8605 136.985 36.055 135.997 36.444C135.01 36.833 134.157 37.3865 133.439 38.1046C132.721 38.8227 132.168 39.6754 131.779 40.6628C131.39 41.6352 131.195 42.7124 131.195 43.8942C131.195 45.48 131.517 46.819 132.16 47.9111C132.818 48.9882 133.709 49.8036 134.831 50.3571C135.968 50.9106 137.247 51.1874 138.668 51.1874C139.969 51.1874 141.076 51.0602 141.989 50.8059C142.902 50.5366 143.665 50.2224 144.278 49.8634C144.906 49.5043 145.422 49.1902 145.826 48.9209C146.23 48.6516 146.567 48.517 146.836 48.517C147.33 48.517 147.711 48.6292 147.981 48.8536C148.25 49.063 148.437 49.3323 148.542 49.6614C148.661 49.9756 148.721 50.2823 148.721 50.5815C148.721 51.2248 148.482 51.8756 148.003 52.5338C147.539 53.1921 146.866 53.798 145.983 54.3515C145.101 54.8901 144.016 55.3239 142.73 55.653C141.458 55.9971 140.014 56.1692 138.399 56.1692ZM161.249 56.9995C160.037 56.9995 158.885 56.8798 157.793 56.6404C156.716 56.4011 155.758 56.0196 154.92 55.496C154.083 54.9723 153.424 54.2916 152.946 53.4539C152.467 52.6161 152.228 51.5913 152.228 50.3795C152.228 49.0032 152.564 47.8737 153.237 46.991C153.911 46.1084 154.823 45.4202 155.975 44.9265C157.142 44.4178 158.451 44.0663 159.902 43.8718C161.353 43.6773 162.857 43.5801 164.413 43.5801C164.891 43.5801 165.378 43.595 165.871 43.6249C166.365 43.6549 166.829 43.6848 167.263 43.7147C167.711 43.7446 168.078 43.7596 168.362 43.7596C168.751 43.7596 169.013 43.6997 169.148 43.5801C169.282 43.4454 169.35 43.221 169.35 42.9068C169.35 42.3234 169.275 41.8073 169.125 41.3585C168.991 40.9096 168.789 40.5132 168.519 40.1691C168.25 39.825 167.928 39.5333 167.554 39.2939C166.956 38.89 166.23 38.6058 165.378 38.4412C164.54 38.2617 163.635 38.1719 162.662 38.1719C161.51 38.1719 160.486 38.2916 159.588 38.531C158.705 38.7703 157.92 39.0172 157.232 39.2715C156.544 39.5258 155.915 39.653 155.347 39.653C154.569 39.653 153.97 39.5258 153.551 39.2715C153.133 39.0172 152.923 38.6058 152.923 38.0373C152.923 37.4538 153.17 36.9152 153.664 36.4215C154.157 35.9279 154.838 35.494 155.706 35.12C156.588 34.746 157.606 34.4543 158.758 34.2448C159.925 34.0354 161.166 33.9307 162.483 33.9307C165.131 33.9307 167.345 34.2673 169.125 34.9405C170.92 35.5987 172.267 36.6759 173.164 38.1719C174.062 39.653 174.511 41.6502 174.511 44.1635C174.511 44.9115 174.473 45.5623 174.399 46.1158C174.324 46.6694 174.227 47.1556 174.107 47.5745C174.002 47.9784 173.912 48.33 173.838 48.6292C173.763 48.9284 173.725 49.2051 173.725 49.4595C173.725 49.8185 173.838 50.1626 174.062 50.4917C174.301 50.8059 174.578 51.1201 174.892 51.4342C175.222 51.7484 175.506 52.085 175.745 52.444C175.984 52.7881 176.104 53.1771 176.104 53.611C176.104 54.2542 175.895 54.718 175.476 55.0023C175.057 55.2865 174.593 55.4286 174.085 55.4286C173.621 55.4286 173.232 55.2715 172.918 54.9574C172.618 54.6582 172.342 54.359 172.087 54.0598C171.848 53.7606 171.549 53.611 171.19 53.611C170.98 53.611 170.748 53.6708 170.494 53.7905C170.255 53.9102 169.955 54.0972 169.596 54.3515C169.148 54.6806 168.572 55.0471 167.869 55.4511C167.18 55.87 166.298 56.229 165.221 56.5282C164.143 56.8424 162.819 56.9995 161.249 56.9995ZM161.854 53.5661C162.782 53.5661 163.68 53.4239 164.547 53.1397C165.415 52.8405 166.193 52.4366 166.881 51.9279C167.569 51.4043 168.115 50.7984 168.519 50.1102C168.923 49.4071 169.125 48.6516 169.125 47.8438C169.125 47.3351 168.953 46.9686 168.609 46.7442C168.28 46.5198 167.734 46.3776 166.971 46.3178C166.208 46.258 165.198 46.228 163.941 46.228C162.7 46.228 161.548 46.3552 160.486 46.6095C159.423 46.8489 158.571 47.2603 157.927 47.8438C157.284 48.4122 156.962 49.1902 156.962 50.1776C156.962 50.9405 157.157 51.5689 157.546 52.0626C157.935 52.5563 158.496 52.9303 159.229 53.1846C159.962 53.4389 160.837 53.5661 161.854 53.5661ZM181.029 55.3164C180.326 55.3164 179.772 55.1294 179.368 54.7554C178.964 54.3814 178.673 53.7755 178.493 52.9377C178.433 52.5488 178.396 52.1074 178.381 51.6138C178.366 51.1201 178.366 50.559 178.381 49.9307C178.396 49.3024 178.433 48.6142 178.493 47.8662C178.673 44.8891 179.278 42.3683 180.311 40.3038C181.343 38.2243 182.779 36.646 184.619 35.5688C186.459 34.4767 188.651 33.9307 191.194 33.9307C193.753 33.9307 195.944 34.4468 197.769 35.479C199.595 36.5113 200.993 38.0971 201.966 40.2364C202.938 42.3758 203.424 45.106 203.424 48.4272C203.424 49.0256 203.409 49.5791 203.38 50.0878C203.365 50.5964 203.335 51.0602 203.29 51.4791C203.245 51.898 203.178 52.2795 203.088 52.6236C202.863 53.581 202.527 54.2692 202.078 54.6881C201.644 55.107 201.076 55.3164 200.372 55.3164C199.654 55.3164 199.108 55.1967 198.734 54.9574C198.36 54.718 198.091 54.359 197.926 53.8802C197.762 53.4015 197.65 52.8106 197.59 52.1074C197.545 50.9854 197.5 49.998 197.455 49.1453C197.425 48.2776 197.373 47.5071 197.298 46.8339C197.238 46.1458 197.164 45.5099 197.074 44.9265C196.984 44.3281 196.872 43.7297 196.737 43.1313C196.393 41.6053 195.817 40.4459 195.009 39.653C194.201 38.8601 192.997 38.4636 191.396 38.4636C189.855 38.4636 188.614 38.89 187.671 39.7427C186.744 40.5955 186.026 41.7699 185.517 43.2659C185.292 43.8942 185.105 44.5525 184.956 45.2407C184.806 45.9288 184.679 46.6394 184.574 47.3725C184.485 48.1056 184.402 48.876 184.328 49.6839C184.268 50.4917 184.208 51.337 184.148 52.2196C184.073 53.0574 183.894 53.7007 183.609 54.1495C183.325 54.5983 182.966 54.905 182.532 55.0696C182.098 55.2341 181.597 55.3164 181.029 55.3164ZM217.758 64.7414C215.902 64.7414 214.309 64.5993 212.978 64.3151C211.646 64.0458 210.554 63.6942 209.701 63.2604C208.864 62.8415 208.243 62.3852 207.839 61.8915C207.45 61.4128 207.255 60.9565 207.255 60.5226C207.255 60.1337 207.375 59.8045 207.614 59.5352C207.869 59.2809 208.198 59.0864 208.602 58.9518C209.021 58.8171 209.492 58.7498 210.016 58.7498C210.434 58.7498 210.921 58.8396 211.474 59.0191C212.043 59.1986 212.686 59.4006 213.404 59.625C214.137 59.8644 214.96 60.0663 215.873 60.2309C216.8 60.3955 217.825 60.4553 218.947 60.4104C220.159 60.3955 221.183 60.1711 222.021 59.7372C222.859 59.3034 223.54 58.7274 224.063 58.0093C224.587 57.3062 224.968 56.5357 225.208 55.6979C225.447 54.8751 225.567 54.0448 225.567 53.207C225.567 53.0574 225.552 52.9303 225.522 52.8255C225.507 52.7208 225.477 52.6385 225.432 52.5787C225.387 52.5039 225.32 52.4665 225.23 52.4665C225.066 52.4665 224.796 52.6236 224.422 52.9377C224.063 53.2369 223.57 53.581 222.941 53.97C222.328 54.359 221.557 54.7031 220.63 55.0023C219.717 55.3164 218.633 55.4735 217.376 55.4735C215.012 55.4735 213.03 55.0771 211.429 54.2842C209.829 53.4913 208.617 52.3543 207.794 50.8732C206.986 49.3772 206.582 47.5894 206.582 45.5099C206.582 43.6399 206.941 42.0317 207.659 40.6852C208.377 39.3238 209.357 38.2018 210.599 37.3192C211.856 36.4365 213.277 35.7857 214.863 35.3668C216.463 34.948 218.132 34.7385 219.867 34.7385C221.752 34.7385 223.442 35.0302 224.939 35.6137C226.435 36.1822 227.699 37.02 228.731 38.127C229.778 39.2341 230.571 40.5805 231.11 42.1663C231.663 43.7371 231.94 45.5249 231.94 47.5296C231.94 50.5216 231.633 53.1023 231.02 55.2715C230.421 57.4408 229.524 59.2211 228.327 60.6124C227.145 62.0187 225.672 63.0584 223.906 63.7316C222.141 64.4048 220.091 64.7414 217.758 64.7414ZM218.767 51.6586C219.8 51.6586 220.772 51.5015 221.685 51.1874C222.597 50.8583 223.398 50.402 224.086 49.8185C224.774 49.2201 225.313 48.517 225.701 47.7091C226.105 46.9013 226.307 46.0111 226.307 45.0387C226.307 43.8568 226.046 42.8096 225.522 41.897C225.013 40.9695 224.273 40.2439 223.3 39.7203C222.328 39.1817 221.139 38.9124 219.732 38.9124C218.895 38.9124 218.027 39.0172 217.129 39.2266C216.232 39.4211 215.401 39.7727 214.638 40.2813C213.875 40.775 213.254 41.4482 212.776 42.301C212.312 43.1537 212.08 44.2308 212.08 45.5324C212.08 46.7591 212.349 47.8363 212.888 48.7638C213.442 49.6913 214.219 50.4094 215.222 50.9181C216.224 51.4118 217.406 51.6586 218.767 51.6586ZM244.831 56.9995C243.619 56.9995 242.467 56.8798 241.375 56.6404C240.298 56.4011 239.34 56.0196 238.502 55.496C237.665 54.9723 237.006 54.2916 236.528 53.4539C236.049 52.6161 235.81 51.5913 235.81 50.3795C235.81 49.0032 236.146 47.8737 236.819 46.991C237.493 46.1084 238.405 45.4202 239.557 44.9265C240.724 44.4178 242.033 44.0663 243.484 43.8718C244.935 43.6773 246.439 43.5801 247.995 43.5801C248.473 43.5801 248.96 43.595 249.453 43.6249C249.947 43.6549 250.411 43.6848 250.845 43.7147C251.293 43.7446 251.66 43.7596 251.944 43.7596C252.333 43.7596 252.595 43.6997 252.73 43.5801C252.864 43.4454 252.932 43.221 252.932 42.9068C252.932 42.3234 252.857 41.8073 252.707 41.3585C252.573 40.9096 252.371 40.5132 252.101 40.1691C251.832 39.825 251.51 39.5333 251.136 39.2939C250.538 38.89 249.812 38.6058 248.96 38.4412C248.122 38.2617 247.217 38.1719 246.244 38.1719C245.092 38.1719 244.068 38.2916 243.17 38.531C242.287 38.7703 241.502 39.0172 240.814 39.2715C240.126 39.5258 239.497 39.653 238.929 39.653C238.151 39.653 237.552 39.5258 237.134 39.2715C236.715 39.0172 236.505 38.6058 236.505 38.0373C236.505 37.4538 236.752 36.9152 237.246 36.4215C237.739 35.9279 238.42 35.494 239.288 35.12C240.17 34.746 241.188 34.4543 242.34 34.2448C243.507 34.0354 244.748 33.9307 246.065 33.9307C248.713 33.9307 250.927 34.2673 252.707 34.9405C254.502 35.5987 255.849 36.6759 256.746 38.1719C257.644 39.653 258.093 41.6502 258.093 44.1635C258.093 44.9115 258.056 45.5623 257.981 46.1158C257.906 46.6694 257.809 47.1556 257.689 47.5745C257.584 47.9784 257.495 48.33 257.42 48.6292C257.345 48.9284 257.307 49.2051 257.307 49.4595C257.307 49.8185 257.42 50.1626 257.644 50.4917C257.883 50.8059 258.16 51.1201 258.474 51.4342C258.804 51.7484 259.088 52.085 259.327 52.444C259.567 52.7881 259.686 53.1771 259.686 53.611C259.686 54.2542 259.477 54.718 259.058 55.0023C258.639 55.2865 258.175 55.4286 257.667 55.4286C257.203 55.4286 256.814 55.2715 256.5 54.9574C256.2 54.6582 255.924 54.359 255.669 54.0598C255.43 53.7606 255.131 53.611 254.772 53.611C254.562 53.611 254.33 53.6708 254.076 53.7905C253.837 53.9102 253.537 54.0972 253.178 54.3515C252.73 54.6806 252.154 55.0471 251.451 55.4511C250.762 55.87 249.88 56.229 248.803 56.5282C247.725 56.8424 246.401 56.9995 244.831 56.9995ZM245.436 53.5661C246.364 53.5661 247.262 53.4239 248.129 53.1397C248.997 52.8405 249.775 52.4366 250.463 51.9279C251.151 51.4043 251.697 50.7984 252.101 50.1102C252.505 49.4071 252.707 48.6516 252.707 47.8438C252.707 47.3351 252.535 46.9686 252.191 46.7442C251.862 46.5198 251.316 46.3776 250.553 46.3178C249.79 46.258 248.78 46.228 247.523 46.228C246.282 46.228 245.13 46.3552 244.068 46.6095C243.005 46.8489 242.153 47.2603 241.509 47.8438C240.866 48.4122 240.544 49.1902 240.544 50.1776C240.544 50.9405 240.739 51.5689 241.128 52.0626C241.517 52.5563 242.078 52.9303 242.811 53.1846C243.544 53.4389 244.419 53.5661 245.436 53.5661ZM272.883 56.0121C270.684 56.0121 268.776 55.6381 267.161 54.8901C265.56 54.142 264.318 53.035 263.435 51.5689C262.568 50.0878 262.134 48.2626 262.134 46.0934C262.134 44.0588 262.53 42.3384 263.323 40.9321C264.116 39.5258 265.253 38.4636 266.734 37.7455C268.215 37.0125 269.988 36.646 272.053 36.646C273.19 36.646 274.132 36.7731 274.88 37.0274C275.643 37.2668 276.264 37.5211 276.743 37.7904C277.087 37.9849 277.393 38.1569 277.663 38.3065C277.947 38.4562 278.149 38.531 278.269 38.531C278.508 38.531 278.628 38.314 278.628 37.8802C278.628 37.4912 278.59 36.9975 278.515 36.3991C278.441 35.7857 278.351 35.12 278.246 34.4019C278.156 33.6838 278.052 32.9657 277.932 32.2476C277.827 31.5295 277.738 30.8638 277.663 30.2504C277.603 29.637 277.573 29.1434 277.573 28.7693C277.573 27.004 278.433 26.1214 280.154 26.1214C280.767 26.1214 281.336 26.271 281.859 26.5702C282.398 26.8544 282.832 27.2958 283.161 27.8942C283.385 28.4178 283.602 29.1359 283.811 30.0485C284.021 30.961 284.215 31.9783 284.395 33.1004C284.589 34.2224 284.754 35.3594 284.889 36.5113C285.038 37.6633 285.15 38.7404 285.225 39.7427C285.315 40.7451 285.36 41.5903 285.36 42.2785C285.36 45.3753 284.941 47.941 284.103 49.9756C283.28 52.0102 281.949 53.5287 280.109 54.531C278.284 55.5184 275.875 56.0121 272.883 56.0121ZM273.04 52.6236C274.416 52.6236 275.576 52.3692 276.518 51.8606C277.461 51.3519 278.171 50.6264 278.65 49.6839C279.144 48.7264 279.391 47.5894 279.391 46.2729C279.391 44.9714 279.151 43.8867 278.673 43.019C278.194 42.1364 277.521 41.4707 276.653 41.0218C275.785 40.573 274.738 40.3486 273.511 40.3486C272.18 40.3486 271.02 40.5805 270.033 41.0443C269.046 41.5081 268.283 42.1962 267.744 43.1088C267.205 44.0064 266.936 45.1285 266.936 46.4749C266.936 47.7315 267.191 48.8237 267.699 49.7512C268.208 50.6638 268.918 51.3744 269.831 51.883C270.744 52.3767 271.813 52.6236 273.04 52.6236ZM301.588 56.0121C299.852 56.0121 298.177 55.8176 296.561 55.4286C294.96 55.0397 293.524 54.4188 292.253 53.5661C290.996 52.7133 290.001 51.6063 289.268 50.2449C288.535 48.8685 288.168 47.193 288.168 45.2182C288.168 43.049 288.52 41.1565 289.223 39.5408C289.941 37.9101 290.929 36.5562 292.185 35.479C293.442 34.3869 294.893 33.5716 296.539 33.033C298.199 32.4795 299.972 32.2027 301.857 32.2027C303.563 32.2027 305.231 32.4197 306.861 32.8535C308.492 33.2874 309.958 33.9681 311.26 34.8956C312.561 35.8231 313.593 37.0274 314.356 38.5085C315.134 39.9746 315.523 41.7474 315.523 43.8269C315.523 45.3977 315.202 46.9087 314.558 48.3599C313.93 49.811 313.01 51.1126 311.798 52.2645C310.601 53.4015 309.143 54.3066 307.422 54.9798C305.717 55.668 303.772 56.0121 301.588 56.0121ZM301.386 51.0527C302.912 51.0527 304.206 50.8209 305.268 50.3571C306.33 49.8784 307.19 49.2575 307.849 48.4945C308.522 47.7166 309.008 46.8713 309.307 45.9588C309.622 45.0462 309.779 44.1411 309.779 43.2435C309.779 41.9868 309.532 40.9246 309.038 40.0569C308.559 39.1742 307.916 38.4636 307.108 37.9251C306.315 37.3865 305.425 36.9975 304.438 36.7582C303.45 36.5038 302.441 36.3767 301.408 36.3767C300.062 36.3767 298.79 36.6684 297.593 37.2518C296.397 37.8203 295.424 38.688 294.676 39.8549C293.943 41.0069 293.577 42.4655 293.577 44.2308C293.577 45.667 293.868 46.9013 294.452 47.9335C295.05 48.9508 295.933 49.7288 297.1 50.2673C298.267 50.7909 299.695 51.0527 301.386 51.0527Z" fill="#EBEBEB"/>
</svg>
